<svg width="243" height="38" viewBox="0 0 243 38" fill="none" xmlns="http://www.w3.org/2000/svg">
<path d="M134.24 0H5V2H134.24V0Z" fill="#000"/>
<path d="M134.24 35.15H5V37.15H134.24V35.15Z" fill="#000"/>
<path d="M4.99866 29.9871H7.24866V21.5671H13.9987L19.3687 29.9871H21.9087L16.3187 21.1771C17.0887 21.0271 17.7887 20.7471 18.4087 20.3271C20.1087 19.1871 21.3987 17.1171 21.3987 14.3271C21.3987 13.4471 21.2287 12.5871 20.8987 11.7271C19.9787 9.35714 17.8687 7.15714 14.6487 7.15714H4.99866V29.9871ZM7.24866 19.5671V9.15714H14.5187C15.1387 9.15714 15.7287 9.29714 16.2987 9.56714C17.8687 10.3371 19.1487 12.0371 19.1487 14.3271C19.1487 15.0171 19.0387 15.6671 18.8287 16.2871C18.2387 17.9871 16.9387 19.5671 14.7087 19.5671H7.24866ZM41.3287 27.9971H28.2487V19.2771H39.3987V17.3871H28.2487V9.15714H41.0387V7.15714H25.9987V29.9871H41.3287V27.9971ZM65.7987 29.9871H68.0487V7.15714H65.7587L56.7887 22.7871L47.8887 7.15714H45.5687V29.9871H47.8187V11.2471L56.1487 25.7471H57.4687L65.7987 11.2471V29.9871ZM72.2587 18.5771C72.2587 21.8771 73.5687 24.6671 75.2187 26.5671C76.9087 28.5071 79.5087 30.1471 82.9587 30.1471C86.3287 30.1471 88.9087 28.5371 90.5987 26.6571C92.2887 24.7771 93.6687 21.9771 93.6687 18.6071C93.6687 15.3371 92.3487 12.5671 90.7287 10.6671C89.0587 8.70714 86.4487 6.99714 82.9987 6.99714C79.6187 6.99714 77.0487 8.60714 75.3487 10.5071C73.6387 12.3971 72.2587 15.1871 72.2587 18.5771ZM74.5087 18.5771C74.5087 17.3971 74.7087 16.2371 75.0987 15.0971C76.2087 11.9371 78.7587 9.05714 82.9587 9.05714C84.2087 9.05714 85.3387 9.31714 86.3687 9.84714C89.2087 11.2971 91.4187 14.3671 91.4187 18.5771C91.4187 21.2371 90.4087 23.5271 89.1387 25.0971C87.8287 26.7171 85.7587 28.1271 82.9587 28.1271C81.6987 28.1271 80.5487 27.8571 79.5187 27.3371C76.6787 25.8871 74.5087 22.7871 74.5087 18.5771ZM96.9787 7.15714H94.6387L104.149 29.9871H106.109L115.629 7.15714H113.279L105.149 27.1871L96.9787 7.15714ZM134.239 27.9971H121.159V19.2771H132.309V17.3871H121.159V9.15714H133.949V7.15714H118.909V29.9871H134.239V27.9971Z" fill="#000"/>
<path d="M242.92 0H139.24V37.15H242.92V0Z" fill="#000"/>
<path d="M163.431 7.15714H159.031V16.3871H148.681V7.15714H144.241V29.9871H148.681V20.2471H159.031V29.9871H163.431V7.15714ZM174.681 7.15714L165.971 29.9871H170.541L172.631 24.2971H180.601L182.721 29.9871H187.291L178.611 7.15714H174.681ZM179.801 21.1771H173.371L176.651 12.2071L179.801 21.1771ZM203.941 18.2871C205.821 17.4571 207.221 15.5071 207.221 12.9771C207.221 12.2771 207.101 11.5671 206.851 10.8771C206.171 8.94714 204.581 7.15714 202.011 7.15714H189.801V29.9871H200.821C204.831 29.9871 208.191 28.1171 208.191 24.1071C208.191 20.9671 206.421 19.0171 203.941 18.2871ZM200.821 26.2271H194.231V20.2171H201.051C202.681 20.2171 203.721 21.6271 203.721 23.2671C203.721 24.9671 202.521 26.2271 200.821 26.2271ZM202.851 13.8171C202.851 15.4871 201.751 16.7071 200.151 16.7071H194.231V10.9571H200.341C201.871 10.9571 202.851 12.2071 202.851 13.8171ZM211.661 29.9871H216.091V7.15714H211.661V29.9871ZM237.921 11.0471V7.15714H218.921V11.0471H226.221V29.9871H230.631V11.0471H237.921Z" fill="white"/>
</svg>
