<svg id="SvgjsSvg1058" width="100%" height="100%" xmlns="http://www.w3.org/2000/svg" version="1.1" xlink="http://www.w3.org/1999/xlink" xmlns:svgjs="http://svgjs.com/svgjs" preserveAspectRatio="xMidYMid meet" viewBox="0 0 300 37.687313079833984" overflow="visible"><defs id="SvgjsDefs1059"></defs><g id="SvgjsG1060" transform="scale(0.7239207548080403)" opacity="1"><g id="SvgjsG1061" class="text" transform="translate(95.16000366210938, 43.099998474121094) scale(1)" light-content="false" fill="#11833d"><path d="M-83.53 0L-83.53 -18.4L-68.12 -18.4L-68.12 0L-56.48 0L-56.48 -42.19L-68.12 -42.19L-68.12 -23.76L-83.53 -23.76L-83.53 -42.19L-95.16 -42.19L-95.16 0Z M-6.77 -20.19C-6.73 -22.12 -6.91 -24.03 -7.32 -25.93C-7.73 -27.82 -8.33 -29.62 -9.13 -31.32C-9.92 -33.02 -10.9 -34.58 -12.08 -36.02C-13.27 -37.46 -14.61 -38.7 -16.11 -39.74C-17.62 -40.79 -19.28 -41.61 -21.11 -42.2C-22.93 -42.8 -24.89 -43.1 -26.98 -43.1C-30.07 -43.1 -32.87 -42.54 -35.38 -41.44C-37.89 -40.34 -40.03 -38.81 -41.82 -36.87C-43.61 -34.93 -44.99 -32.64 -45.97 -30C-46.94 -27.36 -47.43 -24.51 -47.43 -21.45L-47.43 0L-35.8 0L-35.8 -10.25L-23.17 -10.25L-23.17 -15.09L-35.8 -15.09L-35.8 -23.26C-35.8 -24.28 -35.77 -25.36 -35.7 -26.5C-35.63 -27.64 -35.48 -28.77 -35.26 -29.9C-35.03 -31.02 -34.72 -32.09 -34.32 -33.11C-33.92 -34.12 -33.38 -35.01 -32.71 -35.79C-32.04 -36.56 -31.22 -37.17 -30.25 -37.63C-29.28 -38.09 -28.12 -38.32 -26.78 -38.32C-25.25 -38.32 -23.98 -38.01 -22.95 -37.38C-21.93 -36.76 -21.09 -35.93 -20.43 -34.89C-19.78 -33.86 -19.29 -32.68 -18.96 -31.36C-18.62 -30.04 -18.38 -28.69 -18.24 -27.3C-18.09 -25.92 -18.01 -24.56 -18 -23.22C-17.99 -21.88 -17.99 -20.68 -17.99 -19.63C-17.99 -18.28 -18.04 -16.86 -18.15 -15.37C-18.26 -13.87 -18.42 -12.35 -18.63 -10.81C-18.85 -9.27 -19.12 -7.71 -19.44 -6.15C-19.76 -4.59 -20.15 -3.07 -20.6 -1.58C-21.04 -0.1 -21.55 1.32 -22.1 2.68C-22.66 4.04 -23.28 5.29 -23.96 6.45L-19.6 8.96C-18.39 7.91 -17.24 6.69 -16.14 5.32C-15.05 3.94 -14.03 2.47 -13.08 0.89C-12.13 -0.68 -11.28 -2.32 -10.52 -4.04C-9.76 -5.76 -9.1 -7.5 -8.55 -9.26C-8.01 -11.02 -7.58 -12.77 -7.28 -14.53C-6.98 -16.29 -6.81 -17.99 -6.77 -19.63Z M39.64 -11.46C39.64 -13.12 39.36 -14.58 38.79 -15.86C38.22 -17.14 37.46 -18.25 36.49 -19.19C35.52 -20.13 34.4 -20.92 33.12 -21.56C31.84 -22.21 30.49 -22.72 29.06 -23.12C30.2 -23.54 31.27 -24.05 32.3 -24.62C33.33 -25.2 34.23 -25.86 35.02 -26.62C35.82 -27.37 36.45 -28.22 36.91 -29.18C37.38 -30.14 37.62 -31.2 37.62 -32.37C37.62 -33.6 37.41 -34.7 36.99 -35.65C36.57 -36.61 36 -37.46 35.29 -38.19C34.58 -38.92 33.75 -39.54 32.8 -40.05C31.85 -40.56 30.85 -40.97 29.81 -41.28C28.76 -41.59 27.7 -41.82 26.6 -41.97C25.51 -42.11 24.46 -42.19 23.47 -42.19L0.79 -42.19L0.79 0L25.61 0C26.68 0 27.77 -0.11 28.89 -0.34C30 -0.56 31.08 -0.9 32.12 -1.35C33.17 -1.8 34.15 -2.35 35.05 -3.02C35.96 -3.68 36.76 -4.44 37.44 -5.29C38.13 -6.14 38.66 -7.08 39.05 -8.12C39.44 -9.15 39.64 -10.26 39.64 -11.46ZM25.81 -31.35C25.81 -30.16 25.58 -29.13 25.12 -28.27C24.66 -27.41 24.05 -26.7 23.28 -26.15C22.5 -25.59 21.62 -25.18 20.63 -24.92C19.63 -24.65 18.6 -24.52 17.55 -24.52L12.42 -24.52L12.42 -38.2L18.54 -38.2C20.87 -38.2 22.66 -37.66 23.92 -36.56C25.18 -35.47 25.81 -33.73 25.81 -31.35ZM27.86 -12.19C27.86 -10.98 27.66 -9.87 27.25 -8.88C26.84 -7.88 26.26 -7.03 25.52 -6.33C24.78 -5.62 23.9 -5.08 22.88 -4.69C21.87 -4.3 20.76 -4.1 19.57 -4.1L12.42 -4.1L12.42 -20.39L20.6 -20.39C21.83 -20.39 22.9 -20.18 23.8 -19.76C24.71 -19.34 25.47 -18.76 26.07 -18.03C26.68 -17.3 27.13 -16.43 27.42 -15.42C27.71 -14.42 27.86 -13.34 27.86 -12.19Z M58.21 0L58.21 -42.19L46.58 -42.19L46.58 0Z M87.28 0L87.28 -36.8L98.76 -36.8L98.76 -42.19L64.16 -42.19L64.16 -36.8L75.64 -36.8L75.64 0Z"></path></g><g id="SvgjsG1062" class="text" transform="translate(305.47999755859377, 43.099998474121094) scale(1)" light-content="false" fill="#121212"><path d="M-65.21 -11.46C-65.21 -13.12 -65.5 -14.58 -66.06 -15.86C-66.63 -17.14 -67.4 -18.25 -68.36 -19.19C-69.33 -20.13 -70.45 -20.92 -71.73 -21.56C-73.01 -22.21 -74.37 -22.72 -75.79 -23.12C-74.66 -23.54 -73.58 -24.05 -72.55 -24.62C-71.53 -25.2 -70.62 -25.86 -69.83 -26.62C-69.04 -27.37 -68.41 -28.22 -67.94 -29.18C-67.47 -30.14 -67.24 -31.2 -67.24 -32.37C-67.24 -33.6 -67.45 -34.7 -67.87 -35.65C-68.29 -36.61 -68.85 -37.46 -69.57 -38.19C-70.28 -38.92 -71.11 -39.54 -72.06 -40.05C-73 -40.56 -74 -40.97 -75.04 -41.28C-76.09 -41.59 -77.16 -41.82 -78.25 -41.97C-79.35 -42.11 -80.39 -42.19 -81.39 -42.19L-104.06 -42.19L-104.06 0L-79.25 0C-78.17 0 -77.08 -0.11 -75.97 -0.34C-74.85 -0.56 -73.77 -0.9 -72.73 -1.35C-71.68 -1.8 -70.71 -2.35 -69.8 -3.02C-68.89 -3.68 -68.1 -4.44 -67.41 -5.29C-66.73 -6.14 -66.19 -7.08 -65.8 -8.12C-65.41 -9.15 -65.21 -10.26 -65.21 -11.46ZM-79.04 -31.35C-79.04 -30.16 -79.27 -29.13 -79.73 -28.27C-80.19 -27.41 -80.81 -26.7 -81.58 -26.15C-82.35 -25.59 -83.23 -25.18 -84.23 -24.92C-85.22 -24.65 -86.25 -24.52 -87.3 -24.52L-92.43 -24.52L-92.43 -38.2L-86.31 -38.2C-83.98 -38.2 -82.19 -37.66 -80.93 -36.56C-79.67 -35.47 -79.04 -33.73 -79.04 -31.35ZM-76.99 -12.19C-76.99 -10.98 -77.2 -9.87 -77.61 -8.88C-78.02 -7.88 -78.59 -7.03 -79.34 -6.33C-80.08 -5.62 -80.96 -5.08 -81.97 -4.69C-82.99 -4.3 -84.09 -4.1 -85.28 -4.1L-92.43 -4.1L-92.43 -20.39L-84.26 -20.39C-83.03 -20.39 -81.96 -20.18 -81.05 -19.76C-80.14 -19.34 -79.38 -18.76 -78.78 -18.03C-78.17 -17.3 -77.72 -16.43 -77.43 -15.42C-77.14 -14.42 -76.99 -13.34 -76.99 -12.19Z M-46.64 0L-46.64 -15.76L-43.1 -15.76C-42.61 -13.18 -41.91 -10.91 -41 -8.95C-40.09 -6.99 -39.19 -5.34 -38.29 -4.01C-37.24 -2.45 -36.12 -1.11 -34.95 0L-20.45 0C-22.21 -1.19 -23.98 -2.61 -25.78 -4.25C-26.54 -4.95 -27.34 -5.73 -28.18 -6.58C-29.02 -7.43 -29.87 -8.35 -30.72 -9.36C-31.57 -10.37 -32.41 -11.45 -33.24 -12.6C-34.07 -13.75 -34.86 -14.97 -35.62 -16.26C-33.93 -16.51 -32.29 -17.04 -30.7 -17.83C-29.12 -18.62 -27.72 -19.61 -26.5 -20.82C-25.28 -22.02 -24.3 -23.38 -23.57 -24.92C-22.84 -26.45 -22.47 -28.09 -22.47 -29.82C-22.47 -32.05 -22.89 -33.95 -23.72 -35.51C-24.55 -37.07 -25.66 -38.34 -27.06 -39.33C-28.45 -40.32 -30.06 -41.04 -31.87 -41.5C-33.69 -41.96 -35.58 -42.19 -37.53 -42.19L-58.27 -42.19L-58.27 0ZM-34.28 -29.82C-34.28 -28.5 -34.43 -27.23 -34.75 -26.02C-35.06 -24.8 -35.55 -23.74 -36.21 -22.81C-36.87 -21.88 -37.73 -21.14 -38.77 -20.58C-39.82 -20.02 -41.07 -19.75 -42.54 -19.75L-46.64 -19.75L-46.64 -38.06L-42.54 -38.06C-39.79 -38.06 -37.72 -37.39 -36.34 -36.06C-34.97 -34.74 -34.28 -32.66 -34.28 -29.82Z M15.32 0L15.32 -5.39L-3.34 -5.39L-3.34 -18.4L11.07 -18.4L11.07 -23.76L-3.34 -23.76L-3.34 -36.8L15.32 -36.8L15.32 -42.19L-14.97 -42.19L-14.97 0Z M62.7 -20.19C62.73 -22.12 62.55 -24.03 62.14 -25.93C61.73 -27.82 61.13 -29.62 60.34 -31.32C59.55 -33.02 58.56 -34.58 57.38 -36.02C56.2 -37.46 54.85 -38.7 53.35 -39.74C51.85 -40.79 50.18 -41.61 48.35 -42.2C46.53 -42.8 44.57 -43.1 42.48 -43.1C39.39 -43.1 36.6 -42.54 34.09 -41.44C31.58 -40.34 29.43 -38.81 27.64 -36.87C25.85 -34.93 24.47 -32.64 23.5 -30C22.52 -27.36 22.03 -24.51 22.03 -21.45L22.03 0L33.66 0L33.66 -10.25L46.29 -10.25L46.29 -15.09L33.66 -15.09L33.66 -23.26C33.66 -24.28 33.7 -25.36 33.76 -26.5C33.83 -27.64 33.98 -28.77 34.2 -29.9C34.43 -31.02 34.74 -32.09 35.14 -33.11C35.54 -34.12 36.08 -35.01 36.75 -35.79C37.43 -36.56 38.25 -37.17 39.21 -37.63C40.18 -38.09 41.34 -38.32 42.69 -38.32C44.21 -38.32 45.48 -38.01 46.51 -37.38C47.53 -36.76 48.37 -35.93 49.03 -34.89C49.68 -33.86 50.18 -32.68 50.51 -31.36C50.84 -30.04 51.08 -28.69 51.23 -27.3C51.37 -25.92 51.45 -24.56 51.46 -23.22C51.47 -21.88 51.47 -20.68 51.47 -19.63C51.47 -18.28 51.42 -16.86 51.31 -15.37C51.21 -13.87 51.04 -12.35 50.83 -10.81C50.62 -9.27 50.35 -7.71 50.02 -6.15C49.7 -4.59 49.32 -3.07 48.87 -1.58C48.42 -0.1 47.92 1.32 47.36 2.68C46.8 4.04 46.18 5.29 45.5 6.45L49.86 8.96C51.07 7.91 52.23 6.69 53.32 5.32C54.41 3.94 55.43 2.47 56.38 0.89C57.33 -0.68 58.18 -2.32 58.95 -4.04C59.71 -5.76 60.36 -7.5 60.91 -9.26C61.46 -11.02 61.88 -12.77 62.18 -14.53C62.49 -16.29 62.66 -17.99 62.7 -19.63Z M81.88 0L81.88 -16.49C82.28 -16.73 82.65 -16.96 83.01 -17.2C83.37 -17.43 83.74 -17.68 84.11 -17.93L96.8 0L108.93 0L92.08 -23.79C95.22 -26.41 98.13 -29.25 100.81 -32.31C103.49 -35.38 105.86 -38.68 107.93 -42.22L99.99 -42.22C97.74 -38.27 95.06 -34.62 91.95 -31.26C88.83 -27.9 85.48 -24.84 81.88 -22.09L81.88 -42.19L70.25 -42.19L70.25 0Z"></path></g></g></svg>